<mxfile host="d1abf72a-81dd-4281-929f-6ee77b74a401" modified="2020-08-02T16:16:56.588Z" agent="5.0 (Windows NT 10.0; Win64; x64) AppleWebKit/537.36 (KHTML, like Gecko) Code/1.47.3 Chrome/78.0.3904.130 Electron/7.3.2 Safari/537.36" etag="U-Ji41AfkFCHAszFZ87s" version="13.1.3">
    <diagram id="6hGFLwfOUW9BJ-s0fimq" name="Page-1">
        <mxGraphModel dx="291" dy="667" grid="1" gridSize="10" guides="1" tooltips="1" connect="1" arrows="1" fold="1" page="1" pageScale="1" pageWidth="827" pageHeight="1169" math="0" shadow="0">
            <root>
                <mxCell id="0"/>
                <mxCell id="1" parent="0"/>
                <mxCell id="6" style="edgeStyle=elbowEdgeStyle;rounded=0;orthogonalLoop=1;jettySize=auto;html=1;endArrow=none;endFill=0;" edge="1" parent="1" source="3">
                    <mxGeometry relative="1" as="geometry">
                        <mxPoint y="140" as="targetPoint"/>
                        <Array as="points">
                            <mxPoint x="40" y="120"/>
                            <mxPoint x="80" y="120"/>
                            <mxPoint x="40" y="130"/>
                            <mxPoint x="70" y="130"/>
                            <mxPoint x="100" y="110"/>
                        </Array>
                    </mxGeometry>
                </mxCell>
                <mxCell id="7" value="In" style="edgeStyle=elbowEdgeStyle;rounded=0;orthogonalLoop=1;jettySize=auto;html=1;endArrow=none;endFill=0;exitX=-0.009;exitY=0.748;exitDx=0;exitDy=0;exitPerimeter=0;" edge="1" parent="1" source="3">
                    <mxGeometry x="1" y="10" relative="1" as="geometry">
                        <mxPoint x="20" y="140" as="targetPoint"/>
                        <Array as="points">
                            <mxPoint x="40" y="150"/>
                        </Array>
                        <mxPoint as="offset"/>
                    </mxGeometry>
                </mxCell>
                <mxCell id="8" value="Out&lt;br&gt;" style="edgeStyle=elbowEdgeStyle;rounded=0;orthogonalLoop=1;jettySize=auto;html=1;exitX=1;exitY=0.5;exitDx=0;exitDy=0;exitPerimeter=0;endArrow=none;endFill=0;" edge="1" parent="1" source="3">
                    <mxGeometry x="0.0129" y="-10" relative="1" as="geometry">
                        <mxPoint x="250" y="140" as="targetPoint"/>
                        <mxPoint x="-1" as="offset"/>
                    </mxGeometry>
                </mxCell>
                <mxCell id="3" value="&lt;br&gt;" style="verticalLabelPosition=bottom;shadow=0;dashed=0;align=center;html=1;verticalAlign=top;shape=mxgraph.electrical.logic_gates.logic_gate;operation=and;negating=1;fontFamily=Helvetica;fontSize=12;fontColor=#F0F0F0;strokeColor=#f0f0f0;fillColor=#2a2a2a;" vertex="1" parent="1">
                    <mxGeometry x="120" y="100" width="66" height="80" as="geometry"/>
                </mxCell>
            </root>
        </mxGraphModel>
    </diagram>
</mxfile>